<?xml version="1.0" standalone="no"?>
<!DOCTYPE svg PUBLIC "-//W3C//DTD SVG 20010904//EN"
 "http://www.w3.org/TR/2001/REC-SVG-20010904/DTD/svg10.dtd">
<svg version="1.0" xmlns="http://www.w3.org/2000/svg"
 width="512.000000pt" height="512.000000pt" viewBox="0 0 512.000000 512.000000"
 preserveAspectRatio="xMidYMid meet">
<metadata>
Created by potrace 1.14, written by Peter Selinger 2001-2017
</metadata>
<g transform="translate(0.000000,512.000000) scale(0.100000,-0.100000)"
fill="#000000" stroke="none">
<path d="M2400 5028 c-85 -50 -261 -151 -390 -226 -129 -74 -248 -143 -265
-153 -16 -11 -37 -22 -45 -26 -8 -3 -39 -21 -68 -40 -29 -18 -54 -33 -56 -33
-4 0 -386 -220 -686 -395 -69 -40 -148 -85 -175 -100 -28 -15 -54 -31 -60 -35
-5 -4 -30 -19 -55 -32 -25 -14 -93 -53 -151 -87 l-106 -61 0 -1280 0 -1280
201 -116 c111 -64 220 -127 243 -140 23 -13 140 -81 260 -151 120 -69 234
-135 253 -146 58 -32 875 -504 1025 -591 77 -45 147 -85 155 -89 8 -4 30 -16
49 -27 l33 -21 602 347 c330 191 716 414 856 495 140 81 368 212 505 291 l250
145 3 1281 2 1280 -32 20 c-18 11 -53 31 -78 44 -25 14 -112 64 -195 113 -82
48 -184 106 -225 130 -202 116 -929 536 -1035 598 -66 38 -140 81 -165 95 -25
14 -145 83 -267 154 -122 70 -223 128 -225 128 -2 -1 -73 -42 -158 -92z"/>
</g>
</svg>
