<?xml version="1.0" standalone="no"?>
<!DOCTYPE svg PUBLIC "-//W3C//DTD SVG 20010904//EN"
 "http://www.w3.org/TR/2001/REC-SVG-20010904/DTD/svg10.dtd">
<svg version="1.0" xmlns="http://www.w3.org/2000/svg"
 width="512.000000pt" height="512.000000pt" viewBox="0 0 512.000000 512.000000"
 preserveAspectRatio="xMidYMid meet">
<metadata>
Created by potrace 1.14, written by Peter Selinger 2001-2017
</metadata>
<g transform="translate(0.000000,512.000000) scale(0.100000,-0.100000)"
fill="#000000" stroke="none">
<path d="M2477 5099 c-18 -10 -90 -76 -160 -149 -102 -106 -133 -145 -164
-207 -36 -74 -38 -81 -38 -178 l0 -102 -38 -23 c-20 -13 -49 -41 -63 -61 -24
-35 -28 -37 -55 -27 -51 18 -134 1 -190 -38 -42 -28 -68 -63 -85 -109 -9 -26
-15 -30 -45 -28 -51 4 -129 -23 -170 -56 -40 -33 -80 -107 -83 -155 -2 -26 -9
-33 -42 -46 -116 -44 -179 -132 -171 -240 2 -30 7 -64 11 -76 6 -15 2 -23 -17
-31 -41 -19 -97 -74 -120 -117 -26 -51 -28 -156 -4 -203 24 -45 66 -92 98
-108 27 -14 28 -19 28 -80 -1 -52 4 -71 22 -97 13 -18 27 -35 31 -36 15 -6 -2
-21 -45 -40 -207 -91 -257 -382 -94 -540 71 -69 147 -98 267 -105 36 -2 47 -7
55 -25 5 -12 13 -22 17 -22 5 0 8 -6 8 -12 0 -20 112 -166 182 -237 76 -77
170 -153 258 -207 72 -44 173 -94 189 -94 20 0 11 -16 -18 -33 -44 -26 -151
-134 -206 -207 -63 -83 -79 -97 -142 -127 -44 -20 -69 -24 -180 -27 -165 -3
-201 -20 -239 -111 -36 -87 23 -202 112 -220 16 -3 82 -6 146 -6 124 0 209 15
293 51 52 22 150 83 160 100 16 27 21 -1 20 -121 l-1 -132 -59 -30 c-167 -83
-258 -212 -257 -360 2 -195 163 -362 397 -411 136 -28 338 -6 443 48 30 15 34
15 63 0 28 -14 97 -37 153 -51 50 -12 227 -10 292 3 108 22 221 83 287 154 31
33 66 81 77 107 84 190 -1 393 -211 503 l-74 39 0 130 c-1 72 1 131 3 131 2 0
24 -16 50 -35 113 -87 246 -126 426 -126 126 0 144 3 187 28 105 62 97 232
-14 290 -23 12 -66 17 -161 19 -190 5 -220 22 -356 197 -33 42 -92 103 -130
134 l-70 57 46 19 c87 34 244 133 328 207 104 91 173 172 249 287 l60 93 51 0
c146 0 263 76 324 210 21 43 26 71 26 130 0 129 -68 240 -182 296 -72 36 -68
34 -56 42 5 4 20 22 33 40 18 26 23 46 22 96 0 63 1 65 33 84 99 58 140 205
87 309 -21 42 -77 97 -118 116 -16 7 -22 16 -18 26 26 66 9 186 -33 236 -30
35 -86 73 -127 85 -37 11 -40 15 -42 48 -3 49 -40 118 -83 153 -40 34 -121 61
-167 55 -29 -3 -33 0 -47 36 -9 21 -32 54 -52 73 -55 54 -98 70 -185 69 -74 0
-77 0 -97 31 -12 17 -39 41 -59 55 l-38 23 0 102 c0 99 -1 104 -40 181 -33 67
-61 100 -176 216 -109 109 -144 139 -177 147 -52 14 -93 11 -135 -10z"/>
</g>
</svg>
